<?xml version="1.0" encoding="iso-8859-1"?>
<!-- Uploaded to: SVG Repo, www.svgrepo.com, Generator: SVG Repo Mixer Tools -->
<svg fill="#000000" height="800px" width="800px" version="1.1" id="Layer_1" xmlns="http://www.w3.org/2000/svg" xmlns:xlink="http://www.w3.org/1999/xlink" 
	 viewBox="0 0 512 512" xml:space="preserve">
<g>
	<g>
		<path d="M456.092,482.575c-4.876,0-8.828,3.952-8.828,8.828v2.943H318.672l27.289-45.481c1.325-2.209,1.62-4.888,0.805-7.333
			l-6.188-18.561l18.561,6.188c4.173,1.39,8.722-0.498,10.687-4.427l31.457-62.914c27.575,17.148,45.98,47.711,45.98,82.505
			c0,4.875,3.951,8.828,8.828,8.828c4.876,0,8.828-3.952,8.828-8.828c0-63.279-51.48-114.759-114.759-114.759h-36.558
			c27.365-18.532,45.386-49.868,45.386-85.333v-82.391c0-56.788-46.2-102.988-102.989-102.988c-10.272,0-20.194,1.518-29.562,4.331
			c-1.834-4.114-2.806-8.575-2.806-13.159c0-17.848,14.521-32.368,32.368-32.368s32.368,14.52,32.368,32.368
			c0,4.875,3.951,8.828,8.828,8.828c4.876,0,8.828-3.952,8.828-8.828C306.023,22.44,283.583,0,256,0s-50.023,22.44-50.023,50.023
			c0,6.837,1.377,13.51,4.027,19.689c-33.76,16.924-56.992,51.86-56.992,92.127v82.391c0,35.466,18.02,66.801,45.386,85.333h-36.558
			c-63.278,0-114.759,51.48-114.759,114.759v58.851c0,4.875,3.951,8.828,8.828,8.828h400.184c4.876,0,8.828-3.952,8.828-8.828
			v-11.77C464.92,486.527,460.968,482.575,456.092,482.575z M324.108,347.218l-28.808,57.616l-7.385-22.155
			c-0.405-1.216-1.053-2.28-1.867-3.166c1.475-3.209,2.32-6.764,2.32-10.52v-14.124c0-2.666-0.42-5.235-1.189-7.651H324.108z
			 M170.667,161.839c0-47.053,38.28-85.333,85.333-85.333s85.333,38.28,85.333,85.333v14.072
			c-29.904-4.297-52.966-30.077-52.966-61.153c0-4.875-3.951-8.828-8.828-8.828s-8.828,3.952-8.828,8.828
			c0,38.554-44.126,70.275-100.046,73.321V161.839z M170.667,244.23v-38.494c29.948-1.469,57.903-10.367,79.481-25.472
			c12.553-8.786,22.235-19.134,28.712-30.474c11.73,23.78,35.014,40.879,62.473,43.928v50.511c0,47.053-38.28,85.333-85.333,85.333
			S170.667,291.283,170.667,244.23z M270.713,354.869v14.124c0,4.218-3.432,7.651-7.651,7.651h-14.124
			c-4.218,0-7.651-3.432-7.651-7.651v-14.124c0-4.218,3.432-7.651,7.651-7.651h14.124
			C267.28,347.218,270.713,350.651,270.713,354.869z M224.821,347.218c-0.767,2.415-1.189,4.985-1.189,7.651v14.124
			c0,3.756,0.845,7.312,2.32,10.52c-0.813,0.887-1.462,1.951-1.867,3.166l-7.385,22.155l-28.809-57.616H224.821z M64.736,494.345
			v-50.023c0-34.794,18.405-65.357,45.981-82.506l31.457,62.914c1.964,3.929,6.518,5.814,10.687,4.427l18.561-6.188l-6.188,18.561
			c-0.814,2.445-0.52,5.124,0.805,7.333l27.288,45.482H64.736z M213.918,494.345l-30.651-51.083l10.486-31.459
			c1.057-3.172,0.232-6.669-2.133-9.034s-5.86-3.19-9.035-2.133l-28.047,9.349l-28.04-56.081c10.96-4.3,22.873-6.687,35.34-6.687
			h6.315v0.001l73.563,147.126H213.918z M227.479,426.39c0.676-0.816,1.23-1.751,1.585-2.817l10.38-31.139
			c2.935,1.193,6.136,1.864,9.494,1.864h14.124c3.358,0,6.559-0.672,9.494-1.864l10.38,31.139c0.355,1.066,0.91,2.002,1.585,2.819
			L256,483.433L227.479,426.39z M270.283,494.345l73.563-147.126h6.315c12.467,0,24.378,2.387,35.34,6.687l-28.04,56.081
			l-28.047-9.349c-3.17-1.056-6.67-0.233-9.035,2.133c-2.365,2.365-3.19,5.862-2.133,9.034l10.486,31.459l-30.651,51.082H270.283z"
			/>
	</g>
</g>
</svg>